# MagicaVoxel @ Ephtracy

# group
o 

# material
mtllib roadhorizontal.mtl
usemtl palette

# normals
vn -1 0 0
vn 1 0 0
vn 0 0 1
vn 0 0 -1
vn 0 -1 0
vn 0 1 0

# texcoords
vt 0.955078 0.5
vt 0.958984 0.5
vt 0.986328 0.5
vt 0.994141 0.5

# verts
v -2 0 2
v -2 0 -2
v -2 0.2 2
v -2 0.2 1
v -2 0.2 0.9
v -2 0.2 0.8
v -2 0.2 -1
v -2 0.2 -1.1
v -2 0.2 -2
v -2 0.3 2
v -2 0.3 1
v -2 0.3 0.9
v -2 0.3 0.8
v -2 0.3 -1
v -2 0.3 -1.1
v -2 0.3 -2
v 2 0 2
v 2 0 -2
v 2 0.2 2
v 2 0.2 1
v 2 0.2 0.9
v 2 0.2 0.8
v 2 0.2 -1
v 2 0.2 -1.1
v 2 0.2 -2
v 2 0.3 2
v 2 0.3 1
v 2 0.3 0.9
v 2 0.3 0.8
v 2 0.3 -1
v 2 0.3 -1.1
v 2 0.3 -2
v -2 0 2
v -2 0.2 2
v -2 0.3 2
v 2 0 2
v 2 0.2 2
v 2 0.3 2
v -2 0 -2
v -2 0.2 -2
v -2 0.3 -2
v 2 0 -2
v 2 0.2 -2
v 2 0.3 -2
v -2 0 2
v 2 0 2
v -2 0 -2
v 2 0 -2
v -2 0.3 2
v 2 0.3 2
v -2 0.3 1
v 2 0.3 1
v -2 0.3 0.9
v 2 0.3 0.9
v -2 0.3 0.8
v 2 0.3 0.8
v -0.8 0.3 0.0999999
v 0.8 0.3 0.0999999
v -0.8 0.3 -0.2
v 0.8 0.3 -0.2
v -2 0.3 -1
v 2 0.3 -1
v -2 0.3 -1.1
v 2 0.3 -1.1
v -2 0.3 -2
v 2 0.3 -2

# faces
f 3/4/1 2/4/1 1/4/1
f 4/4/1 2/4/1 3/4/1
f 5/4/1 2/4/1 4/4/1
f 6/4/1 2/4/1 5/4/1
f 7/4/1 2/4/1 6/4/1
f 8/4/1 2/4/1 7/4/1
f 9/4/1 2/4/1 8/4/1
f 10/3/1 4/3/1 3/3/1
f 11/2/1 5/2/1 4/2/1
f 11/3/1 4/3/1 10/3/1
f 12/4/1 6/4/1 5/4/1
f 12/2/1 5/2/1 11/2/1
f 13/1/1 7/1/1 6/1/1
f 13/4/1 6/4/1 12/4/1
f 14/2/1 8/2/1 7/2/1
f 14/1/1 7/1/1 13/1/1
f 15/3/1 9/3/1 8/3/1
f 15/2/1 8/2/1 14/2/1
f 16/3/1 9/3/1 15/3/1
f 17/4/2 18/4/2 19/4/2
f 19/4/2 18/4/2 20/4/2
f 20/4/2 18/4/2 21/4/2
f 21/4/2 18/4/2 22/4/2
f 22/4/2 18/4/2 23/4/2
f 23/4/2 18/4/2 24/4/2
f 24/4/2 18/4/2 25/4/2
f 19/3/2 20/3/2 26/3/2
f 20/2/2 21/2/2 27/2/2
f 26/3/2 20/3/2 27/3/2
f 21/4/2 22/4/2 28/4/2
f 27/2/2 21/2/2 28/2/2
f 22/1/2 23/1/2 29/1/2
f 28/4/2 22/4/2 29/4/2
f 23/2/2 24/2/2 30/2/2
f 29/1/2 23/1/2 30/1/2
f 24/3/2 25/3/2 31/3/2
f 30/2/2 24/2/2 31/2/2
f 31/3/2 25/3/2 32/3/2
f 36/4/3 34/4/3 33/4/3
f 37/3/3 35/3/3 34/3/3
f 37/4/3 34/4/3 36/4/3
f 38/3/3 35/3/3 37/3/3
f 39/4/4 40/4/4 42/4/4
f 40/3/4 41/3/4 43/3/4
f 42/4/4 40/4/4 43/4/4
f 43/3/4 41/3/4 44/3/4
f 47/4/5 46/4/5 45/4/5
f 48/4/5 46/4/5 47/4/5
f 49/3/6 50/3/6 51/3/6
f 51/3/6 50/3/6 52/3/6
f 51/2/6 52/2/6 53/2/6
f 53/2/6 52/2/6 54/2/6
f 53/4/6 54/4/6 55/4/6
f 55/4/6 54/4/6 56/4/6
f 55/1/6 56/1/6 57/1/6
f 57/1/6 56/1/6 58/1/6
f 55/1/6 57/1/6 59/1/6
f 57/2/6 58/2/6 59/2/6
f 58/1/6 56/1/6 60/1/6
f 59/2/6 58/2/6 60/2/6
f 55/1/6 59/1/6 61/1/6
f 59/1/6 60/1/6 61/1/6
f 60/1/6 56/1/6 62/1/6
f 61/1/6 60/1/6 62/1/6
f 61/2/6 62/2/6 63/2/6
f 63/2/6 62/2/6 64/2/6
f 63/3/6 64/3/6 65/3/6
f 65/3/6 64/3/6 66/3/6
