# MagicaVoxel @ Ephtracy

# group
o 

# material
mtllib roadturnleftup.mtl
usemtl palette

# normals
vn -1 0 0
vn 1 0 0
vn 0 0 1
vn 0 0 -1
vn 0 -1 0
vn 0 1 0

# texcoords
vt 0.955078 0.5
vt 0.958984 0.5
vt 0.986328 0.5

# verts
v -2 0 2
v -2 0 -2
v -2 0.2 2
v -2 0.2 1
v -2 0.2 0.9
v -2 0.2 -1
v -2 0.2 -1.1
v -2 0.2 -2
v -2 0.3 2
v -2 0.3 1
v -2 0.3 0.9
v -2 0.3 -1
v -2 0.3 -1.1
v -2 0.3 -2
v 2 0 2
v 2 0 -2
v 2 0.2 2
v 2 0.2 -2
v 2 0.3 2
v 2 0.3 -2
v -2 0 2
v -2 0.2 2
v -2 0.3 2
v -1 0.2 2
v -1 0.3 2
v -0.9 0.2 2
v -0.9 0.3 2
v 1 0.2 2
v 1 0.3 2
v 1.1 0.2 2
v 1.1 0.3 2
v 2 0 2
v 2 0.2 2
v 2 0.3 2
v -2 0 -2
v -2 0.2 -2
v -2 0.3 -2
v 2 0 -2
v 2 0.2 -2
v 2 0.3 -2
v -2 0 2
v 2 0 2
v -2 0 -2
v 2 0 -2
v -2 0.3 2
v -1 0.3 2
v -0.9 0.3 2
v 1 0.3 2
v 1.1 0.3 2
v 2 0.3 2
v -2 0.3 1
v -1 0.3 1
v -0.0999999 0.3 1
v 0.2 0.3 1
v -2 0.3 0.9
v -0.9 0.3 0.9
v -1 0.3 0.0999999
v -0.0999999 0.3 0.0999999
v -1 0.3 -0.2
v 0.2 0.3 -0.2
v -2 0.3 -1
v 1 0.3 -1
v -2 0.3 -1.1
v 1.1 0.3 -1.1
v -2 0.3 -2
v 2 0.3 -2

# faces
f 3/1/1 2/1/1 1/1/1
f 4/1/1 2/1/1 3/1/1
f 5/1/1 2/1/1 4/1/1
f 6/1/1 2/1/1 5/1/1
f 7/1/1 2/1/1 6/1/1
f 8/1/1 2/1/1 7/1/1
f 9/3/1 4/3/1 3/3/1
f 10/2/1 5/2/1 4/2/1
f 10/3/1 4/3/1 9/3/1
f 11/1/1 6/1/1 5/1/1
f 11/2/1 5/2/1 10/2/1
f 12/2/1 7/2/1 6/2/1
f 12/1/1 6/1/1 11/1/1
f 13/3/1 8/3/1 7/3/1
f 13/2/1 7/2/1 12/2/1
f 14/3/1 8/3/1 13/3/1
f 15/1/2 16/1/2 17/1/2
f 17/1/2 16/1/2 18/1/2
f 17/3/2 18/3/2 19/3/2
f 19/3/2 18/3/2 20/3/2
f 24/1/3 22/1/3 21/1/3
f 24/3/3 23/3/3 22/3/3
f 25/3/3 23/3/3 24/3/3
f 26/1/3 24/1/3 21/1/3
f 26/2/3 25/2/3 24/2/3
f 27/2/3 25/2/3 26/2/3
f 28/1/3 26/1/3 21/1/3
f 28/1/3 27/1/3 26/1/3
f 29/1/3 27/1/3 28/1/3
f 30/1/3 28/1/3 21/1/3
f 30/2/3 29/2/3 28/2/3
f 31/2/3 29/2/3 30/2/3
f 32/1/3 30/1/3 21/1/3
f 33/3/3 31/3/3 30/3/3
f 33/1/3 30/1/3 32/1/3
f 34/3/3 31/3/3 33/3/3
f 35/1/4 36/1/4 38/1/4
f 36/3/4 37/3/4 39/3/4
f 38/1/4 36/1/4 39/1/4
f 39/3/4 37/3/4 40/3/4
f 43/1/5 42/1/5 41/1/5
f 44/1/5 42/1/5 43/1/5
f 45/3/6 46/3/6 51/3/6
f 46/2/6 47/2/6 52/2/6
f 51/3/6 46/3/6 52/3/6
f 47/1/6 48/1/6 53/1/6
f 53/1/6 48/1/6 54/1/6
f 51/2/6 52/2/6 55/2/6
f 52/2/6 47/2/6 56/2/6
f 55/2/6 52/2/6 56/2/6
f 47/1/6 53/1/6 56/1/6
f 55/1/6 56/1/6 57/1/6
f 53/2/6 54/2/6 58/2/6
f 57/1/6 56/1/6 58/1/6
f 56/1/6 53/1/6 58/1/6
f 55/1/6 57/1/6 59/1/6
f 57/2/6 58/2/6 59/2/6
f 54/1/6 48/1/6 60/1/6
f 59/2/6 58/2/6 60/2/6
f 58/2/6 54/2/6 60/2/6
f 55/1/6 59/1/6 61/1/6
f 59/1/6 60/1/6 61/1/6
f 48/2/6 49/2/6 62/2/6
f 61/1/6 60/1/6 62/1/6
f 60/1/6 48/1/6 62/1/6
f 61/2/6 62/2/6 63/2/6
f 49/3/6 50/3/6 64/3/6
f 63/2/6 62/2/6 64/2/6
f 62/2/6 49/2/6 64/2/6
f 63/3/6 64/3/6 65/3/6
f 64/3/6 50/3/6 66/3/6
f 65/3/6 64/3/6 66/3/6
